<svg xmlns="http://www.w3.org/2000/svg" viewBox="0 0 512 512">
  <defs>
    <linearGradient id="bg" x1="0" y1="0" x2="1" y2="1">
      <stop offset="0%" stop-color="#0b1737"/>
      <stop offset="100%" stop-color="#0f766e"/>
    </linearGradient>
  </defs>
  <rect width="512" height="512" rx="110" fill="url(#bg)"/>
  <rect x="86" y="112" width="340" height="288" rx="34" fill="#f8fafc" opacity="0.95"/>
  <rect x="86" y="112" width="340" height="74" rx="34" fill="#0b1737"/>
  <rect x="86" y="152" width="340" height="34" fill="#0b1737"/>
  <circle cx="142" cy="150" r="9" fill="#94a3b8"/>
  <circle cx="170" cy="150" r="9" fill="#94a3b8"/>
  <circle cx="198" cy="150" r="9" fill="#94a3b8"/>
  <rect x="122" y="226" width="196" height="18" rx="9" fill="#0f172a" opacity="0.9"/>
  <rect x="122" y="262" width="268" height="14" rx="7" fill="#64748b" opacity="0.85"/>
  <rect x="122" y="290" width="244" height="14" rx="7" fill="#64748b" opacity="0.85"/>
  <rect x="122" y="318" width="180" height="14" rx="7" fill="#64748b" opacity="0.85"/>
  <rect x="328" y="216" width="62" height="116" rx="12" fill="#dbeafe"/>
  <path d="M348 274l14 14 24-30" fill="none" stroke="#0f766e" stroke-width="14" stroke-linecap="round" stroke-linejoin="round"/>
</svg>
